# xmcd
#
# Track frame offsets:
#	150
#	18710
#	34383
#	51610
#	69122
#	82964
#	97814
#	111037
#	125481
#	139450
#
# Disc length: 2204 seconds
#
# Revision: 0
# Processed by: cddbd v1.5.2PL0 Copyright (c) Steve Scherf et al.
# Submitted via: EasyCDDAExtractor 16.0.9.1
#
DISCID=89089a0a
DTITLE=JONI MADDEN - JOY TO THE WORLD
DYEAR=1900
DGENRE=
TTITLE0=Joy To The World
TTITLE1=Swing Low Sweet Chariot
TTITLE2=Oh Christmas Tree
TTITLE3=Let There Be Peace On Earth
TTITLE4=When Angels Sing
TTITLE5=Heaven
TTITLE6=Go Tell It On The Mountain
TTITLE7=Hark The Harold Angels Sing
TTITLE8=Little Drummer Boy
TTITLE9=Silent Night
EXTD=
EXTT0=
EXTT1=
EXTT2=
EXTT3=
EXTT4=
EXTT5=
EXTT6=
EXTT7=
EXTT8=
EXTT9=
PLAYORDER=
